<?xml version="1.0" standalone="no"?>
<!DOCTYPE svg PUBLIC "-//W3C//DTD SVG 20010904//EN"
 "http://www.w3.org/TR/2001/REC-SVG-20010904/DTD/svg10.dtd">
<svg version="1.0" xmlns="http://www.w3.org/2000/svg"
 width="260.000000pt" height="260.000000pt" viewBox="0 0 260.000000 260.000000"
 preserveAspectRatio="xMidYMid meet">
<metadata>
Created by potrace 1.14, written by Peter Selinger 2001-2017
</metadata>
<g transform="translate(0.000000,260.000000) scale(0.100000,-0.100000)"
fill="#000000" stroke="none">
<path d="M1169 2540 c-267 -24 -545 -157 -744 -355 -248 -246 -370 -540 -370
-890 1 -247 55 -444 179 -650 41 -69 155 -215 167 -215 9 0 25 34 69 150 16
41 47 122 69 180 23 58 41 119 41 135 0 19 -19 62 -47 110 -48 80 -48 80 -47
170 0 80 4 100 37 180 21 50 42 99 47 110 5 11 59 126 120 255 60 129 120 243
132 253 18 15 24 16 42 4 40 -27 45 -8 -113 -425 -33 -89 -61 -171 -61 -181 0
-10 7 -24 15 -31 29 -24 58 2 89 81 47 121 186 442 202 467 24 37 84 24 84
-20 0 -9 -41 -139 -91 -289 -49 -149 -89 -281 -87 -292 2 -16 11 -23 34 -25
31 -3 33 -1 59 70 117 310 186 483 199 496 19 19 63 8 71 -17 6 -20 2 -37 -89
-347 -67 -234 -89 -299 -131 -389 -36 -81 -101 -145 -171 -169 -24 -9 -64 -23
-89 -32 -25 -9 -52 -26 -60 -37 -23 -36 -195 -498 -195 -524 0 -6 132 -94 180
-120 74 -40 196 -87 300 -115 76 -20 108 -23 295 -23 198 0 215 2 309 28 195
54 394 160 520 278 l59 55 -24 63 c-22 59 -29 66 -99 114 -102 68 -272 241
-353 359 -166 239 -267 503 -267 696 0 91 22 207 51 264 17 34 62 78 80 78 24
0 73 -77 143 -226 44 -93 108 -227 142 -299 70 -149 215 -453 284 -600 100
-212 114 -239 135 -278 l23 -39 40 58 c148 219 229 534 202 788 -14 134 -26
193 -62 301 -105 313 -328 570 -623 718 -148 75 -275 111 -443 127 -116 11
-126 11 -253 0z"/>
</g>
</svg>
